<svg viewBox="0 0 110 20" fill="transparent" xmlns="http://www.w3.org/2000/svg">
<g id="logo">
<path d="M5.56641 18H0.180043V0.545454H5.80504C7.49822 0.545454 8.94709 0.894886 10.1516 1.59375C11.3562 2.28693 12.2795 3.28409 12.9215 4.58523C13.5636 5.88068 13.8846 7.43182 13.8846 9.23864C13.8846 11.0568 13.5607 12.6222 12.913 13.9347C12.2653 15.2415 11.3221 16.2472 10.0835 16.9517C8.84482 17.6506 7.33913 18 5.56641 18ZM2.29368 16.125H5.43004C6.87322 16.125 8.06925 15.8466 9.01811 15.2898C9.96697 14.733 10.6744 13.9403 11.1403 12.9119C11.6062 11.8835 11.8391 10.6591 11.8391 9.23864C11.8391 7.82955 11.609 6.61648 11.1488 5.59943C10.6886 4.5767 10.0011 3.79261 9.08629 3.24716C8.17152 2.69602 7.03232 2.42045 5.66868 2.42045H2.29368V16.125ZM21.0096 18.3068C20.18 18.3068 19.4272 18.1506 18.7511 17.8381C18.0749 17.5199 17.538 17.0625 17.1403 16.4659C16.7425 15.8636 16.5437 15.1364 16.5437 14.2841C16.5437 13.5341 16.6914 12.9261 16.9869 12.4602C17.2823 11.9886 17.6772 11.6193 18.1715 11.3523C18.6658 11.0852 19.2113 10.8864 19.8079 10.7557C20.4102 10.6193 21.0153 10.5114 21.6232 10.4318C22.4187 10.3295 23.0636 10.2528 23.5579 10.2017C24.0579 10.1449 24.4215 10.0511 24.6488 9.92045C24.8817 9.78977 24.9982 9.5625 24.9982 9.23864V9.17045C24.9982 8.32955 24.7681 7.67614 24.3079 7.21023C23.8533 6.74432 23.163 6.51136 22.2369 6.51136C21.2766 6.51136 20.5238 6.72159 19.9783 7.14205C19.4329 7.5625 19.0494 8.01136 18.8278 8.48864L16.9187 7.80682C17.2596 7.01136 17.7141 6.39205 18.2823 5.94886C18.8562 5.5 19.4812 5.1875 20.1573 5.01136C20.8391 4.82955 21.5096 4.73864 22.1687 4.73864C22.5891 4.73864 23.0721 4.78977 23.6175 4.89204C24.1687 4.98864 24.6999 5.19034 25.2113 5.49716C25.7283 5.80398 26.1573 6.26705 26.4982 6.88636C26.8391 7.50568 27.0096 8.33523 27.0096 9.375V18H24.9982V16.2273H24.896C24.7596 16.5114 24.5323 16.8153 24.2141 17.1392C23.896 17.4631 23.4727 17.7386 22.9442 17.9659C22.4158 18.1932 21.771 18.3068 21.0096 18.3068ZM21.3164 16.5C22.1119 16.5 22.7823 16.3438 23.3278 16.0312C23.8789 15.7188 24.2937 15.3153 24.5721 14.821C24.8562 14.3267 24.9982 13.8068 24.9982 13.2614V11.4205C24.913 11.5227 24.7255 11.6165 24.4357 11.7017C24.1516 11.7812 23.8221 11.8523 23.4471 11.9148C23.0778 11.9716 22.717 12.0227 22.3647 12.0682C22.0181 12.108 21.7369 12.142 21.521 12.1705C20.9982 12.2386 20.5096 12.3494 20.055 12.5028C19.6062 12.6506 19.2425 12.875 18.9641 13.1761C18.6914 13.4716 18.555 13.875 18.555 14.3864C18.555 15.0852 18.8136 15.6136 19.3306 15.9716C19.8533 16.3239 20.5153 16.5 21.3164 16.5ZM39.9535 7.84091L38.1467 8.35227C38.033 8.05114 37.8654 7.75852 37.6438 7.47443C37.4279 7.18466 37.1325 6.94602 36.7575 6.75852C36.3825 6.57102 35.9023 6.47727 35.3171 6.47727C34.516 6.47727 33.8484 6.66193 33.3143 7.03125C32.7859 7.39489 32.5217 7.85795 32.5217 8.42045C32.5217 8.92045 32.7035 9.31534 33.0671 9.60511C33.4308 9.89489 33.9989 10.1364 34.7717 10.3295L36.7148 10.8068C37.8853 11.0909 38.7575 11.5256 39.3313 12.1108C39.9052 12.6903 40.1921 13.4375 40.1921 14.3523C40.1921 15.1023 39.9762 15.7727 39.5444 16.3636C39.1183 16.9545 38.5217 17.4205 37.7546 17.7614C36.9876 18.1023 36.0955 18.2727 35.0785 18.2727C33.7433 18.2727 32.6381 17.983 31.7631 17.4034C30.8881 16.8239 30.3342 15.9773 30.1012 14.8636L32.0103 14.3864C32.1921 15.0909 32.5359 15.6193 33.0415 15.9716C33.5529 16.3239 34.2205 16.5 35.0444 16.5C35.9819 16.5 36.7262 16.3011 37.2773 15.9034C37.8342 15.5 38.1126 15.017 38.1126 14.4545C38.1126 14 37.9535 13.6193 37.6353 13.3125C37.3171 13 36.8285 12.767 36.1694 12.6136L33.9876 12.1023C32.7887 11.8182 31.908 11.3778 31.3455 10.7812C30.7887 10.179 30.5103 9.42614 30.5103 8.52273C30.5103 7.78409 30.7177 7.13068 31.1325 6.5625C31.5529 5.99432 32.1239 5.5483 32.8455 5.22443C33.5728 4.90057 34.3967 4.73864 35.3171 4.73864C36.6126 4.73864 37.6296 5.02273 38.3683 5.59091C39.1126 6.15909 39.641 6.90909 39.9535 7.84091ZM45.2312 10.125V18H43.2198V0.545454H45.2312V6.95455H45.4016C45.7085 6.27841 46.1687 5.74148 46.7823 5.34375C47.4016 4.94034 48.2255 4.73864 49.2539 4.73864C50.146 4.73864 50.9272 4.91761 51.5977 5.27557C52.2681 5.62784 52.788 6.17045 53.1573 6.90341C53.5323 7.63068 53.7198 8.55682 53.7198 9.68182V18H51.7085V9.81818C51.7085 8.77841 51.4386 7.97443 50.8988 7.40625C50.3647 6.83239 49.6232 6.54545 48.6744 6.54545C48.0153 6.54545 47.4244 6.68466 46.9016 6.96307C46.3846 7.24148 45.9755 7.64773 45.6744 8.18182C45.3789 8.71591 45.2312 9.36364 45.2312 10.125Z" fill="white"/>
<path d="M71.6751 0.545454V18H68.4876L60.8938 7.0142H60.766V18H57.0756V0.545454H60.3143L67.8484 11.5227H68.0018V0.545454H71.6751ZM74.7241 18V0.545454H86.4854V3.58807H78.4144V7.74716H85.8803V10.7898H78.4144V14.9574H86.5195V18H74.7241ZM88.7546 3.58807V0.545454H103.09V3.58807H97.7461V18H94.0984V3.58807H88.7546Z" fill="#36BCBA"/>
</g>
</svg>
